<?xml version="1.0" encoding="utf-8"?>
<!-- Svg Vector Icons : http://www.onlinewebfonts.com/icon -->
<!DOCTYPE svg PUBLIC "-//W3C//DTD SVG 1.1//EN" "http://www.w3.org/Graphics/SVG/1.1/DTD/svg11.dtd">
<svg version="1.1" xmlns="http://www.w3.org/2000/svg" xmlns:xlink="http://www.w3.org/1999/xlink" x="0px" y="0px" viewBox="0 0 256 256" enable-background="new 0 0 256 256" xml:space="preserve">
<metadata> Svg Vector Icons : http://www.onlinewebfonts.com/icon </metadata>
<g><g><g><path fill="#000000" d="M67,49c-1.2,1.2-5.4,6.1-9.5,11c-27.7,32.5-44.9,56.5-47.3,65.8c-0.7,2.8-0.1,5.1,2.5,10.4c5.7,11.6,27.8,40.6,51.7,67.8l4.6,5.2l86.2-0.1l86.2-0.1l1.7-1.3c3.3-2.5,3,3.6,3-80.3c-0.1-75.8-0.1-75.9-1.1-77.1c-0.5-0.7-1.5-1.7-2.2-2.2l-1.2-1l-86.2-0.1l-86.2-0.1L67,49z M231.3,128v66.4h-77.9H75.5l-2-1.6c-6.1-4.8-21.3-24.6-42.3-55.3l-6.5-9.5l5.4-8c19.9-29.2,37.7-52.4,43.4-56.8l2.2-1.7h77.9h77.9V128L231.3,128z"/><path fill="#000000" d="M117.4,99.3c-1.7,0.9-3.5,3.3-4,5.5c-0.1,0.8,0,2.4,0.2,3.5c0.5,1.7,1.9,3.3,9.3,10.7l8.7,8.8l-8.5,8.5c-4.7,4.7-8.9,9.2-9.2,10c-2.9,6,2.6,12.5,9.1,10.8c1.7-0.5,3.3-1.9,10.8-9.4l8.9-8.8l8.9,8.8c7.5,7.4,9.2,8.9,10.9,9.4c6.5,1.8,11.9-5,8.9-11c-0.5-0.9-4.7-5.4-9.2-10l-8.3-8.3l8.7-8.8c7.3-7.4,8.8-9.1,9.2-10.7c1.7-6.3-4.2-11.6-10.4-9.3c-0.7,0.3-5.2,4.3-9.9,9.1l-8.7,8.6l-8.6-8.6c-4.8-4.8-9.3-8.8-10-9.1C122.3,98.3,119.2,98.4,117.4,99.3z"/></g></g></g>
</svg>